<svg width="105" height="83" fill="none" xmlns="http://www.w3.org/2000/svg"><path d="M81.375 36.313c-13.06 0-23.625 10.44-23.625 23.343C57.75 72.56 68.316 83 81.375 83 94.435 83 105 72.56 105 59.656c0-12.904-10.566-23.343-23.625-23.343zm10.5 24.364c0 .86-.722 1.573-1.591 1.573H80.34c-.87 0-1.591-.713-1.591-1.572V48.26c0-.86.722-1.572 1.591-1.572h2.068c.87 0 1.591.713 1.591 1.572v8.803h6.284c.87 0 1.591.713 1.591 1.572v2.043zM52.5 59.657c0-4.507 1.1-8.77 2.986-12.564-1.313-.243-2.658-.406-4.036-.406h-2.74a28.88 28.88 0 01-11.96 2.594 28.94 28.94 0 01-11.96-2.593h-2.74C9.877 46.688 0 56.445 0 68.475v6.744C0 79.515 3.527 83 7.875 83h56.946C57.39 77.829 52.5 69.302 52.5 59.656zM36.75 41.5c11.6 0 21-9.289 21-20.75S48.35 0 36.75 0s-21 9.289-21 20.75 9.4 20.75 21 20.75z" fill="url(#paint0_linear_1_3701)"/><defs><linearGradient id="paint0_linear_1_3701" x1="52.5" y1="0" x2="119.15" y2="114.836" gradientUnits="userSpaceOnUse"><stop stop-color="#8BD7DC"/><stop offset="1" stop-color="#1246A9"/></linearGradient></defs></svg>