<svg width="672" height="343" fill="none" xmlns="http://www.w3.org/2000/svg"><g filter="url(#filter0_d_1_3084)"><path fill-rule="evenodd" clip-rule="evenodd" d="M497.004 11.635c-1.891 2.045-1.872 2.32.3 4.388.985.937 1.967 3.245 2.183 5.129.217 1.884 1.156 4.299 2.089 5.367.93 1.069 1.479 1.992 1.218 2.053-.614.14 4.108 8.609 6.213 11.141.889 1.069 3.122 2.49 4.964 3.156 1.842.667 3.038 1.51 2.656 1.872-1.078 1.027-7.989-2.247-7.989-3.784 0-.754-.727-1.779-1.616-2.279-.889-.5-2.257-2.073-3.042-3.497-.785-1.423-1.96-2.274-2.613-1.89-.652.384-1.834.223-2.625-.358-.791-.58-3.884-1.154-6.872-1.275-4.693-.188-5.872.251-8.658 3.23-1.776 1.898-3.682 3.45-4.234 3.45-.554 0-1.047 3.823-1.099 8.496-.05 4.674-.423 9.008-.829 9.633-.406.625-4.069 2.989-8.14 5.252-4.072 2.264-7.603 4.297-7.848 4.519-.672.608 4.683 10.035 6.243 10.993.749.459 2.639.84 4.199.852 4.851.029 22.911 10.936 29.975 18.102 5.604 5.684 8.574 6.908 16.772 6.908h8.099l1.379-3.976c1.278-3.69 1.733-3.977 6.297-3.977 3.825 0 4.599-.303 3.486-1.362-.787-.75-1.431-2.3-1.431-3.445 0-1.144-.805-2.374-1.79-2.733-1.038-.38-1.789-2.081-1.789-4.051 0-4.726-3.831-9.356-10.151-12.27-2.949-1.359-5.361-3.1-5.361-3.869 0-.769-1.283-2.46-2.851-3.758-2.616-2.165-2.763-2.818-1.772-7.874.594-3.03 1.631-5.69 2.305-5.906.797-.257.739-.951-.165-1.988-.843-.968-.913-1.594-.176-1.594 1.87 0 2.851 3.523 1.434 5.15-.697.798-1.519 3.446-1.829 5.884-.467 3.693-.059 4.847 2.439 6.916 1.651 1.366 3.001 2.989 3.001 3.606 0 .616 1.301 1.432 2.889 1.813 4.455 1.064 11.429 8.874 11.429 12.796 0 1.826.806 3.955 1.79 4.734.984.777 1.807 1.99 1.829 2.694.102 3.276 7.12 8.419 7.12 5.218 0-.787.812-.763 2.452.073 1.35.688 3.076 1.053 3.836.81 1.356-.429 6.837 4.875 6.837 6.616 0 .485.85 1.777 1.889 2.87 1.039 1.093 2.833 3.662 3.986 5.711 1.154 2.048 2.854 4.08 3.779 4.513.924.434 3.023 1.365 4.663 2.072 5.063 2.174 10.888 6.676 9.296 7.182-2.728.865 12.897 3.183 17.641 2.616 2.794-.333 5.524-1.537 6.769-2.981 1.211-1.409 2.846-2.144 3.903-1.757 1.886.689 2.271 1.427 3.475 6.665 1.053 4.577 5.72 6.846 17.247 8.388 5.652.757 12.56 1.74 15.349 2.184l5.07.811.018-3.838c.025-5.545 2.442-9.291 6.756-10.468 4.223-1.153 6.386-5.297 2.764-5.297-1.588 0-2.377-1.175-2.947-4.384-.628-3.534-1.609-4.8-5.08-6.54-4.065-2.037-11.999-10.91-12.171-13.61-.043-.684 1.022-2.191 2.366-3.35 1.663-1.434 2.33-3.211 2.089-5.568-.293-2.833-.992-3.565-3.86-4.035-3.011-.492-3.743-1.366-5.238-6.252-.955-3.124-1.757-7.322-1.78-9.329-.023-2.006-.754-3.907-1.622-4.224-1.946-.71-2.044-4.514-.202-7.793 1.696-3.014 2.267-10.86.853-11.692-.57-.336-1.037-2.113-1.037-3.952 0-2.81-.476-3.34-2.994-3.34-1.647 0-3.914-1.023-5.038-2.273-1.124-1.25-2.646-2.272-3.383-2.272-.737 0-2.312-1.022-3.5-2.272-1.187-1.25-3.621-2.272-5.408-2.272-4.149 0-11.892-3.054-11.892-4.691 0-.858-2.157-1.003-6.861-.461-7.326.844-12.23 3.095-12.23 5.613 0 .85-1.076 1.814-2.391 2.141-1.509.377-2.142 1.216-1.714 2.278.792 1.963-5.195 3.194-16.881 3.468-6.183.147-7.98-.302-12.09-3.014-2.656-1.754-6.367-3.571-8.248-4.04-2.461-.614-3.739-1.87-4.561-4.482-.628-1.996-1.616-3.629-2.196-3.629-2.046 0-5.533-5.153-5.573-8.236-.054-4.336-3.138-4.056-8.676.788-3.86 3.375-5.038 3.812-8.741 3.24-2.815-.435-5.142-1.772-6.8-3.907-2.853-3.674-3.273-3.795-5.353-1.546zM222.557 34.33c-2.45 2.17-3.9 3.96-3.218 3.977.739.018 1.187 3.016 1.113 7.43-.113 6.72-.478 7.746-3.967 11.175-3.334 3.274-3.687 4.167-2.661 6.731.648 1.627 2.279 3.519 3.623 4.203 1.343.685 2.444 1.838 2.444 2.563 0 .725 1.257 2.624 2.793 4.22 1.54 1.599 3.43 5.71 4.206 9.15.776 3.438 1.935 7.016 2.576 7.953 1.781 2.61 3.726-.748 3.211-5.545-.368-3.434.188-4.274 5.265-7.952 4.631-3.354 5.689-4.78 5.744-7.737.037-1.994-.469-3.94-1.126-4.327-.655-.386-1.193-1.735-1.193-2.997 0-1.943-.531-2.185-3.466-1.571-5.344 1.118-5.715-1.364-.838-5.617 5.052-4.407 5.936-9.92 1.918-11.968-1.312-.67-2.386-1.886-2.386-2.704 0-.82 1.074-2.414 2.386-3.545 1.313-1.13 2.386-2.798 2.386-3.706 0-1.582-.35-1.553-5.511.47-.734.29-1.622-.526-1.976-1.811-1.015-3.7-6.152-2.97-11.323 1.608zm-23.945.106c-2.051 1.393-3.137 1.558-4.118.625-1.997-1.902-10.402-1.536-23.933 1.038-9.05 1.722-12.724 2.95-14.509 4.85-1.315 1.399-3.626 2.631-5.136 2.74-1.511.108-5.017 1.633-7.792 3.387-4.761 3.01-4.96 3.351-3.532 6.03.833 1.562 1.522 5.572 1.531 8.91.013 4.307.703 6.898 2.378 8.925 3.695 4.473 1.482 7.158-5.898 7.158-7.556 0-14.624 3.894-13.754 7.576.487 2.049-.281 2.777-4.557 4.332-2.827 1.028-6.128 3.121-7.335 4.651-1.386 1.759-3.895 3.041-6.815 3.485-2.541.388-4.91 1.149-5.262 1.69-.352.544-1.675.988-2.939.988-1.263 0-5.016 1.593-8.338 3.539l-6.04 3.538.266 6.21c.26 6.141.335 6.257 6.655 10.378 10.4 6.784 32.653 22.868 39.818 28.781 3.66 3.021 7.031 5.493 7.491 5.493 3.12 0 28.211 21.18 28.211 23.813 0 .65 1.343 1.181 2.983 1.181 1.641 0 2.984.511 2.984 1.136 0 .625 1.008 1.135 2.24 1.135 3.089 0 5.273 2.829 4.34 5.627-.943 2.83-.782 2.835 12.052.434 9.86-1.845 10.266-2.05 16.339-8.296 5.199-5.346 14.186-12.154 23.298-17.645 1.037-.625 2.617-1.775 3.512-2.556.894-.781 2.259-1.442 3.033-1.469.774-.027 3.74-2 6.591-4.386 5.426-4.537 5.414-4.459 1.653-10.261-.175-.273-2.58-.783-5.34-1.135-4.301-.55-5.176-1.132-6.091-4.051-1.41-4.494-2.82-7.521-4.605-9.89-1.201-1.593-1.027-2.399.983-4.543 2.197-2.348 2.398-3.786 2.004-14.388-.28-7.522-1.086-12.976-2.233-15.086-.987-1.818-1.512-3.742-1.168-4.274 1.34-2.064-3.694-17.22-6.297-18.954-1.421-.95-2.585-2.445-2.585-3.326 0-.88-1.03-2.124-2.291-2.766-1.26-.642-2.893-2.906-3.63-5.03-1.234-3.562-1.06-4.153 2.236-7.589 4.06-4.232 4.582-6.235 3.605-13.87-.484-3.794-.219-5.8.886-6.672 2.848-2.25 1.696-2.67-8.266-3.014-7.69-.265-10.449.074-12.625 1.551zm268.959-.006c-2.559 2.437-9.767 3.422-12.019 1.644-1.44-1.138-2.522-1.136-5.432.012-2.721 1.072-4.361 1.119-6.52.181-2.921-1.268-4.998-.13-3.625 1.985 1.231 1.895-1.886 6.776-3.864 6.052-1.448-.528-1.67-.092-1.061 2.078.425 1.512.779 3.899.787 5.304.013 1.738.734 2.556 2.259 2.556 3.592 0 5.601 3.03 3.591 5.418-2.782 3.304-4.64 6.943-4.64 9.091 0 3.285 9.7 7.78 10.938 5.07.668-1.466 11.977-8.9 18.295-12.027 10.25-5.073 10.258-5.085 10.328-15.35.054-7.806.383-9.262 2.217-9.817 1.185-.357 2.806-1.397 3.601-2.31 1.242-1.425.425-1.66-5.773-1.66-4.952 0-7.804.557-9.082 1.773zM104.976 49.872c-2.869 6.16-11.274 14.595-14.545 14.595-2.592 0-11.335 7.87-11.335 10.204 0 1.092-.996 3.205-2.213 4.695-2.798 3.426-4.33 10.903-2.632 12.852 2.942 3.375-12.334 17.974-22.283 21.293l-5.684 1.897 17.6.091 17.599.091v-4.299c0-3.649.587-4.629 3.877-6.469 2.133-1.193 4.588-2.837 5.454-3.653.868-.816 3.118-1.484 5.001-1.484 1.884 0 3.756-.512 4.162-1.136.405-.625 1.926-1.136 3.378-1.136 1.452 0 4.507-1.457 6.79-3.235 2.283-1.78 6.132-4.124 8.555-5.212 3.916-1.755 4.286-2.275 3.328-4.676-1.183-2.962-.922-3.253 3.901-4.35 1.803-.412 3.28-1.25 3.28-1.862 0-.613 2.896-1.114 6.436-1.114 7.211 0 9.022-1.756 6.213-6.024-.903-1.373-1.911-5.978-2.241-10.232-.659-8.498-2.836-11.388-7.723-10.252-1.564.363-2.685.099-2.685-.635 0-.751-2.372-1.26-5.881-1.26-3.743 0-6.558-.645-7.745-1.776-1.027-.977-2.431-1.444-3.121-1.038-.69.407-2.02.134-2.955-.606-1.404-1.109-2.198-.278-4.531 4.73zm328.383 11.65l-1.898 6.14 2.794-1.212c1.536-.666 2.792-2.03 2.792-3.028 0-.999 1.115-2.48 2.477-3.29 1.991-1.183 2.196-1.795 1.049-3.113-2.893-3.319-5.249-1.848-7.214 4.503zm-188.094 9.286c.629 2.994.121 3.677-5.227 7.046-5.665 3.567-5.888 3.904-5.134 7.731.637 3.235.269 4.527-1.918 6.744-1.487 1.507-3.162 2.472-3.724 2.141-1.478-.868-1.258.345.723 3.99 1.105 2.036 1.919 7.835 2.229 15.888.458 11.886.331 12.788-2.025 14.359-2.11 1.406-2.276 1.994-1.03 3.652 1.709 2.274 4.576 7.873 5.522 10.78.414 1.276 1.847 1.989 3.997 1.989 4.286 0 8.184 2.6 9.097 6.069.571 2.165 1.718 2.843 5.65 3.345 3.299.421 6.193 1.792 8.727 4.128 4.334 4.001 7.041 4.408 9.275 1.395.858-1.156 3.311-2.963 5.451-4.012l3.893-1.91 12.44 6.212c13.627 6.805 16.705 8.509 24.117 13.342 2.733 1.783 5.43 3.24 5.993 3.24.565 0 3.698 1.674 6.965 3.718 10.742 6.726 15.791 8.865 16.54 7.007.38-.943 2.244-1.637 4.402-1.637h3.745l-.84-27.549c-.461-15.152-1.362-34.707-1.999-43.454-2.062-28.298-2.07-32.328-.073-33.392 2.283-1.216.86-3.53-2.169-3.53-4.997 0-12.926-2.755-13.453-4.675-.837-3.05-8.833-4.892-14.702-3.387-9.129 2.34-13.394 8.79-9.913 14.984 1.031 1.834.617 2.832-2.346 5.654-3.502 3.335-3.695 3.379-7.218 1.644-1.992-.979-3.62-2.199-3.62-2.706 0-1.382-5.628-3.56-12.324-4.768-7.008-1.266-8.73-2.447-10.952-7.508-.913-2.08-2.511-3.783-3.552-3.783s-3.175-.8-4.741-1.777c-1.611-1.005-6.127-1.924-10.399-2.116-4.152-.186-8.574-.75-9.827-1.253-2.011-.809-2.195-.53-1.58 2.4zm210.873-1.229c-.817.937-2.141 1.704-2.944 1.704-.802 0-2.431 1.023-3.618 2.272-2.553 2.685-6.392 2.927-9.616.605-1.273-.918-2.584-1.684-2.913-1.704-.328-.02-.587 3.16-.575 7.065.019 6.87-.342 9.226-2.767 18.075-1.138 4.144-1.126 4.163 3.138 4.925 3.8.678 4.618.369 7.313-2.75 1.669-1.934 3.865-3.51 4.883-3.505 2.27.013 4.713-2.185 4.713-4.24 0-.838-1.074-2.623-2.386-3.963-1.313-1.342-2.387-2.817-2.387-3.279 0-1.579 6.284-5.548 8.812-5.566 4.693-.032 5.449-1.274 3.976-6.528-1.411-5.034-3.125-5.982-5.629-3.11zm-26.382 2.556c-.697 1.72-1.421 4.984-1.609 7.258-.187 2.274-.672 4.646-1.078 5.27-.97 1.496 4.123 13.127 5.234 11.951.471-.498 1.181-3.315 1.577-6.26.539-3.982.292-5.585-.961-6.254-3.811-2.03-3.228-11.07.78-12.067 1.317-.328 2.041-1.143 1.609-1.81-1.444-2.223-4.27-1.25-5.552 1.912zm2.767 5.688c.192 2.65.886 4.637 1.541 4.415 1.444-.485.9-6.528-.727-8.106-.757-.733-1.04.555-.814 3.69zm28.388 1.966c-1.64.9-3.856 1.657-4.925 1.68-3.656.074-4.992 2.987-2.818 6.145 2.989 4.345 1.908 7.87-2.865 9.34-2.377.732-4.759 2.538-5.769 4.375-1.59 2.887-2.118 3.073-6.827 2.401l-5.104-.729-.748 4.306c-1.124 6.481-.976 7.147 1.589 7.147 1.539 0 3.179 1.524 4.705 4.373 1.289 2.404 4.145 6.622 6.347 9.372 5.004 6.25 7.709 10.935 8.584 14.867.422 1.893 2.561 4.266 5.636 6.249 5.796 3.738 9.944 11.957 11.121 22.036.771 6.599 2.973 9.672 11.097 15.483 1.93 1.383 5.511 6.367 7.955 11.077s4.903 8.564 5.465 8.564c.562 0 2.529 2.556 4.371 5.679 1.843 3.123 3.752 5.679 4.245 5.68.954.002.96-.018 1.334-4.893.279-3.666 2.933-5.772 5.107-4.054.975.77 2.878.77 5.81 0 2.782-.732 5.429-.759 7.317-.075 1.628.589 4.965 1.071 7.416 1.071 2.45 0 5.147.639 5.992 1.421 1.233 1.141 1.923.899 3.52-1.236 8.459-11.317 11.368-12.806 28.233-14.457 4.595-.45 11.843-2.072 16.108-3.606 4.266-1.534 8.763-2.978 9.992-3.21 5.775-1.087 7.392-3.41 9.022-12.966 1.984-11.638 1.668-12.003-11.752-13.591-11.84-1.402-14.071-2.597-19.367-10.381-2.195-3.224-5.2-6.299-6.681-6.835-1.699-.616-2.693-1.927-2.699-3.559-.003-1.421-1.073-4.118-2.378-5.992-1.304-1.874-2.374-4.797-2.378-6.493-.006-1.916-.912-3.544-2.395-4.299-1.312-.671-2.386-1.923-2.386-2.785 0-.863-1.611-2.248-3.579-3.078-1.969-.83-3.58-2.328-3.58-3.327 0-2.677-3.907-5.579-7.509-5.579-1.854 0-3.638-.876-4.344-2.132-.999-1.778-2.971-2.211-11.869-2.617-11.959-.544-14.225-1.599-26.446-12.296-12.625-11.05-27.785-16.789-34.547-13.076zm-108.234 3.139c-1.274 1.587-1.113 8.96.689 31.526.675 8.435 1.259 20.96 1.301 27.833.04 6.874.407 15.144.815 18.38l.742 5.882 24.603.366c13.53.201 24.734.11 24.896-.203.164-.312 4.09-.396 8.727-.187 5.885.264 8.628.866 9.08 1.988 1.017 2.524 1.931 2.046 9.903-5.177 5.668-5.135 7.336-7.346 6.856-9.088-.425-1.55-.052-2.305 1.138-2.305 1.368 0 1.188-.705-.799-3.124-3.069-3.734-14.319-22.611-14.319-24.025 0-.545-.802-2.456-1.783-4.246-2.413-4.407-2.424-6.869-.022-4.97 3.15 2.489 5.045.469 6.037-6.431 1.178-8.201 1.126-8.535-2.593-16.632-1.667-3.63-2.734-7.338-2.371-8.24.573-1.424.313-1.423-1.988.006-2.952 1.834-10.221 2.06-12.441.388-.792-.597-2.012-.746-2.714-.335-.701.413-1.128.124-.947-.641.219-.935-1.935-1.555-6.533-1.88-4.436-.316-6.86-.055-6.86.739 0 .676-.637 1.228-1.416 1.228-.778 0-2.651 1.107-4.164 2.46-2.359 2.11-3.182 2.272-5.8 1.136-1.678-.728-3.965-1.34-5.083-1.362-1.118-.022-4.179-1.026-6.804-2.234-5.468-2.514-16.403-3.028-18.15-.852zm177.929 14.218c-2.212 1.424-2.891 5.947-.891 5.947 2.05 0 5.172 2.694 5.172 4.463 0 .669 1.343 1.217 2.983 1.217 1.641 0 2.984-.232 2.984-.514 0-1.671-2.978-6.308-4.07-6.336-.715-.02-.36-.556.788-1.192 3.538-1.963 2.533-4.457-1.789-4.437-2.134.01-4.462.393-5.177.852zm-112.747 9.64c.642 1.718.949 3.124.682 3.124-.737 0-6.554-9.712-6.524-10.893.043-1.664 4.564 4.349 5.842 7.769zm4.274 5.395c.406.625.2 1.137-.456 1.137-.657 0-1.525-.512-1.93-1.137-.406-.624-.2-1.135.455-1.135.657 0 1.526.511 1.931 1.135zM44.097 118.62c-.438.415-.796 1.545-.796 2.509 0 .962-2.685 4.188-5.966 7.169-4.138 3.758-5.966 6.313-5.966 8.34 0 3.973-2.838 8.901-6.41 11.131-1.624 1.013-3.306 3.006-3.736 4.428-1.35 4.467-4.388 10.45-6.503 12.811-2.066 2.306-4.925 10.324-4.708 13.197.065.865.491.294.946-1.268.824-2.824.914-2.842 16.586-3.156l15.757-.317v-14.609l5.37-2.995 5.369-2.996v-21.369h26.249l.153-4.26c.084-2.343.278-5.411.433-6.816.28-2.552.241-2.557-17.85-2.557-9.973 0-18.491.341-18.928.758zm562.089 13.443c.313 1.562 1.044 2.84 1.625 2.84.579 0 1.054-1.278 1.054-2.84 0-1.639-.688-2.841-1.624-2.841-1.09 0-1.437.936-1.055 2.841zm-46.588.567c.343 1.25 1.099 2.273 1.679 2.273.578 0 1.053-1.023 1.053-2.273 0-1.249-.754-2.271-1.677-2.271-1.091 0-1.461.795-1.055 2.271zm4.171.954c-1.623 4.434-.516 8.842 2.731 10.867 2.574 1.606 2.749 1.533 3.35-1.371 1.104-5.34-1.198-12.721-3.97-12.721-.511 0-1.461 1.451-2.111 3.225zm34.357 6.074c-6.861 8.165-9.211 9.428-16.112 8.661-2.294-.255-4.172-.055-4.172.444s-1.074.908-2.387.908c-1.312 0-2.386-.51-2.386-1.135 0-.626-.519-1.136-1.155-1.136-1.862 0 .255 4.022 4.393 8.342 3.031 3.163 5.031 4.147 9.546 4.696a502.4 502.4 0 019.495 1.247c4.435.648 4.715.338 5.763-6.349.438-2.795 1.182-5.341 1.652-5.656.472-.317.83-2.365.795-4.552-.052-3.239.379-3.977 2.323-3.977 1.567 0 2.518-.878 2.769-2.556.248-1.675-.236-2.556-1.409-2.556-.985 0-1.963-.943-2.171-2.095-.285-1.565-2.041-.119-6.944 5.714zm8.298 2.8c-1.341.345-1.712 1.549-1.361 4.412.295 2.403-.033 3.938-.841 3.938-.728 0-1.232.383-1.124.852.111.467-.206 2.715-.705 4.992-.682 3.114-.393 4.888 1.159 7.145 1.676 2.435 1.921 4.442 1.297 10.627-1.218 12.064-1.263 12.134-10.105 15.329-4.374 1.582-9.454 3.195-11.286 3.584-1.833.391-3.657 1.515-4.055 2.501-.398.99 1.356 5.849 3.923 10.862l4.645 9.07 4.183-.781c2.301-.431 5.734-.86 7.63-.956 1.96-.099 3.891-1.031 4.475-2.162.564-1.094 1.483-2.882 2.041-3.976.558-1.094 2.482-2.154 4.274-2.356 2.384-.271 3.701-1.376 4.907-4.123 1.647-3.757 3.711-5.166 7.564-5.166 1.696 0 2.043-1.067 1.99-6.151-.073-7.116.578-8.147 4.028-6.389 2.058 1.049 2.649.924 3.3-.692.45-1.113.191-2.16-.595-2.409-.865-.275-.11-2.017 1.997-4.613 1.864-2.295 4.027-5.739 4.811-7.656 1.366-3.352 1.188-3.709-4.668-9.373-3.346-3.238-6.727-5.891-7.51-5.894-4.872-.021-10.104-2.707-13.289-6.82-1.93-2.494-3.81-4.475-4.176-4.402-.365.073-1.495.345-2.509.607zM435.509 163.38c-9.734 8.954-10.168 9.169-12.683 6.284-1.125-1.291-7.618-1.618-34.151-1.72l-32.763-.126v19.344h-7.102l-.327 19.029-.327 19.029-3.621.338c-2.95.276-4.048 1.222-5.931 5.112-1.271 2.626-2.196 5.687-2.054 6.801.141 1.115-.541 2.318-1.518 2.675-1.174.428-1.54 1.533-1.084 3.264.379 1.439.12 3.63-.576 4.868-1.043 1.856-.851 2.356 1.092 2.84 1.849.46 2.358 1.561 2.358 5.099 0 2.726.745 5.1 1.885 6.001 1.081.853 1.665 2.587 1.371 4.059-.293 1.454.156 2.814 1.034 3.134 2.975 1.088 5.485 7.563 4.941 12.749-.454 4.341-.225 4.976 1.798 4.976 1.315 0 2.589.984 2.942 2.272.389 1.414 1.628 2.272 3.284 2.272 3.033 0 7.219 3.82 6.089 5.559-.412.637.742 2.039 2.569 3.116 4.44 2.621 6.301 4.908 6.301 7.746 0 1.351 1.143 2.831 2.684 3.476 1.476.616 3.49 2.745 4.474 4.731.986 1.986 2.961 4.887 4.391 6.448 2.366 2.583 3.251 2.789 9.845 2.302 6.793-.501 7.329-.36 8.583 2.26 1.546 3.231 4.778 4.538 10.349 4.185 2.163-.138 4.597.275 5.409.916.928.733 2.125.774 3.227.112.961-.58 4.016-1.061 6.788-1.072 4.387-.015 5.281-.46 6.892-3.425 1.715-3.157 2.333-3.408 8.384-3.408 6.462 0 6.531-.037 6.531-3.409 0-2.545-.552-3.407-2.185-3.407-1.222 0-2.851-1.377-3.694-3.125-4.669-9.659-8.703-14.893-12.984-16.837-3.22-1.464-3.88-2.354-3.58-4.833.301-2.476 1.057-3.102 4.082-3.383l3.71-.344.654-9.071c.612-8.509 2.331-13.074 4.452-11.825.509.299 1.287-1.752 1.728-4.557.443-2.806 1.266-5.101 1.832-5.101.564 0 1.648-1.789 2.406-3.976.892-2.577 2.13-3.977 3.516-3.977 2.478 0 3.578-4.583 3.682-15.337.035-3.748.838-8.861 1.785-11.36.944-2.5 1.728-5.966 1.737-7.704.011-1.894.817-3.453 2.015-3.89 1.098-.401 2.843-1.421 3.878-2.267 1.034-.845 3.393-2.677 5.243-4.07l3.362-2.534-4.827-3.4c-5.581-3.931-7.123-7.46-7.712-17.649-.232-4.036-1.298-8.871-2.368-10.745-1.069-1.875-1.948-4.005-1.952-4.733-.007-1.286-8.523-8.332-10.071-8.332-.423 0-3.031 2.079-5.793 4.62zm130.401 33.497c-.985.202-4.362.688-7.507 1.082-6.475.812-12.38 5.028-17.178 12.264-2.719 4.101-3.074 4.284-5.024 2.604-1.153-.994-4.203-1.859-6.777-1.921-2.572-.063-6.021-.484-7.661-.935-1.641-.452-4.765-.366-6.942.188-2.598.662-4.492.589-5.51-.214-2.039-1.613-4.598 1.166-3.526 3.828.469 1.163-.195 2.881-1.698 4.405-2.574 2.61-3.252 8.531-1.458 12.723 1.699 3.964 4.067 12.457 3.775 13.532-.669 2.462 2.656 7.494 5.062 7.664 6.25.44 11.379-.82 14.422-3.542 1.566-1.401 4.213-2.32 6.69-2.323 2.261-.004 6.241-1.262 8.872-2.806 2.625-1.538 5.94-2.815 7.365-2.833 1.428-.02 4.113-1.249 5.967-2.729 1.855-1.481 6.326-3.822 9.935-5.203 14.994-5.735 16.891-6.797 16.142-9.045-.784-2.349 2.08-5.78 4.823-5.78 2.425 0 2.314-.331-3.876-11.507-5.478-9.894-5.659-10.077-9.843-9.947-2.345.073-5.068.296-6.053.495zm-72.003 17.267c-.345.532.412 1.583 1.684 2.337 1.269.756 2.308.921 2.308.367 0-1.559-3.289-3.786-3.992-2.704zm97.692 38.855c-.43.664.011 1.497.981 1.852 2.589.945 8.529.09 8.529-1.229 0-1.561-8.539-2.119-9.51-.623zm-85.97 1.229c-.462.713-1.856 1.043-3.096.734-1.643-.409-2.454.183-2.979 2.174-.396 1.504-1.198 2.735-1.783 2.735-.586 0-1.065 1.59-1.065 3.534 0 3.466.088 3.519 4.474 2.756 2.462-.426 5.261-1.506 6.221-2.397 1.527-1.416 1.376-1.627-1.193-1.667l-2.939-.046 3.353-1.731c2.33-1.202 3.241-2.463 2.983-4.126-.424-2.742-2.731-3.882-3.976-1.966zm75.196 2.234c.406.625 1.274 1.136 1.93 1.136.657 0 .862-.511.456-1.136-.406-.624-1.274-1.136-1.93-1.136-.657 0-.862.512-.456 1.136z" fill="#BECAD6" fill-opacity=".24" shape-rendering="crispEdges"/></g><defs><filter id="filter0_d_1_3084" x="0" y="0" width="672" height="343" filterUnits="userSpaceOnUse" color-interpolation-filters="sRGB"><feFlood flood-opacity="0" result="BackgroundImageFix"/><feColorMatrix in="SourceAlpha" values="0 0 0 0 0 0 0 0 0 0 0 0 0 0 0 0 0 0 127 0" result="hardAlpha"/><feOffset/><feGaussianBlur stdDeviation="5"/><feComposite in2="hardAlpha" operator="out"/><feColorMatrix values="0 0 0 0 1 0 0 0 0 1 0 0 0 0 1 0 0 0 1 0"/><feBlend in2="BackgroundImageFix" result="effect1_dropShadow_1_3084"/><feBlend in="SourceGraphic" in2="effect1_dropShadow_1_3084" result="shape"/></filter></defs></svg>