<svg xmlns="http://www.w3.org/2000/svg"><symbol id="icon-captions" viewBox="0 0 18 14" xmlns="http://www.w3.org/2000/svg"><path d="M-.67-4.08h14a2 2 0 012 2v10a2 2 0 01-2 2h-14a2 2 0 01-2-2v-10a2 2 0 012-2z" transform="translate(2.67 4.08)" fill="#fff"/><path d="M2.88 6.67a2.81 2.81 0 01-2.1-1 3.91 3.91 0 01.1-4.8c.5-.6 2-1.7 4.6.2l-.6.8c-1.4-1-2.6-1.1-3.3-.3a3 3 0 00-.1 3.5c.7.9 1.9.8 3.4-.1l.5.9a5.28 5.28 0 01-2.5.8zm7.5 0a2.81 2.81 0 01-2.1-1 3.91 3.91 0 01.1-4.8c.5-.6 2-1.7 4.6.2l-.5.8c-1.4-1-2.6-1.1-3.3-.3a3 3 0 00-.1 3.5c.7.9 1.9.8 3.4-.1l.5.9a6.07 6.07 0 01-2.6.8z" transform="translate(2.67 4.08)"/></symbol><symbol id="icon-chapters" viewBox="0 0 16.6 13" xmlns="http://www.w3.org/2000/svg"><path d="M1.5 0A1.54 1.54 0 013 1.5 1.54 1.54 0 011.5 3 1.54 1.54 0 010 1.5 1.47 1.47 0 011.5 0zm5.1 0h8.5a1.47 1.47 0 011.5 1.5A1.54 1.54 0 0115.1 3H6.6a1.47 1.47 0 01-1.5-1.5A1.37 1.37 0 016.6 0zM1.5 5A1.54 1.54 0 013 6.5 1.54 1.54 0 011.5 8 1.54 1.54 0 010 6.5 1.47 1.47 0 011.5 5zm5.1 0h8.5a1.47 1.47 0 011.5 1.5A1.54 1.54 0 0115.1 8H6.6a1.47 1.47 0 01-1.5-1.5A1.37 1.37 0 016.6 5zm-5.1 5a1.5 1.5 0 010 3A1.54 1.54 0 010 11.5 1.47 1.47 0 011.5 10zm5.1 0h8.5a1.47 1.47 0 011.5 1.5 1.54 1.54 0 01-1.5 1.5H6.6a1.47 1.47 0 01-1.5-1.5A1.37 1.37 0 016.6 10z"/></symbol><symbol id="icon-fullscreen" viewBox="0 0 17.8 17.8" xmlns="http://www.w3.org/2000/svg"><path d="M0 1a.94.94 0 011-1h5.4c.6 0 .7.3.3.7l-6 6c-.4.4-.7.3-.7-.3zm0 15.8a.94.94 0 001 1h5.4c.6 0 .7-.3.3-.7l-6-6c-.4-.4-.7-.3-.7.3zM17.8 1a.94.94 0 00-1-1h-5.4c-.6 0-.7.3-.3.7l6 6c.4.4.7.3.7-.3zm0 15.8a.94.94 0 01-1 1h-5.4c-.6 0-.7-.3-.3-.7l6-6c.4-.4.7-.3.7.3z"/></symbol><symbol id="icon-unfullscreen" viewBox="0 0 17.8 17.8" xmlns="http://www.w3.org/2000/svg"><path d="M11.74 4.64a.94.94 0 001 1h4.1c.6 0 .7-.3.3-.7l-4.7-4.7c-.4-.4-.7-.3-.7.3zm-7.1 1a.94.94 0 001-1V.54c0-.6-.3-.7-.7-.3l-4.7 4.7c-.4.4-.3.7.3.7zm1 7.1a.94.94 0 00-1-1H.54c-.6 0-.7.3-.3.7l4.7 4.7c.4.4.7.3.7-.3zm7.1-1a.94.94 0 00-1 1v4.1c0 .5.3.7.7.3l4.7-4.7c.4-.4.3-.7-.3-.7z"/></symbol><symbol id="icon-mute" viewBox="0 0 17.55 17.03" xmlns="http://www.w3.org/2000/svg"><path d="M6.21 4.36a3 3 0 01-1.8.6h-3.2a.94.94 0 00-1 1v5.7a.94.94 0 001 1h4.2c.3.2.5.4.8.6l3.5 2.6a.47.47 0 00.8-.4V2.06a.47.47 0 00-.8-.4z"/><g fill="none" stroke-linecap="round" stroke-width="1.5"><path d="M13.11 1.18S17 .38 17 8.88s-3.9 7.8-3.9 7.8"/><path d="M11.81 5.08s2.6-.4 2.6 3.8-2.6 3.9-2.6 3.9"/></g></symbol><symbol id="icon-unmute" viewBox="0 0 18.2 17" xmlns="http://www.w3.org/2000/svg"><path d="M6.21 4.36a3 3 0 01-1.8.6h-3.2a.94.94 0 00-1 1v5.7a.94.94 0 001 1h4.2c.3.2.5.4.8.6l3.5 2.6a.47.47 0 00.8-.4V2.06a.47.47 0 00-.8-.4z"/><path d="M12 5.55l5.4 5.4M12 11l5.4-5.4" fill="none" stroke-linecap="round" stroke-width="2"/></symbol><symbol id="icon-play" viewBox="0 0 18 18" xmlns="http://www.w3.org/2000/svg"><path d="M16.5 8.5c.3.1.4.5.2.8-.1.1-.1.2-.2.2l-11.4 7c-.5.3-.8.1-.8-.5V2c0-.5.4-.8.8-.5l11.4 7z"/></symbol><symbol id="icon-pause" viewBox="0 0 14 16" xmlns="http://www.w3.org/2000/svg"><path d="M1 0h2.2a.94.94 0 011 1v14a.94.94 0 01-1 1H1a.94.94 0 01-1-1V1a1 1 0 011-1zm9.8 0H13a.94.94 0 011 1v14a.94.94 0 01-1 1h-2.2a.94.94 0 01-1-1V1a1 1 0 011-1z"/></symbol><symbol id="icon-replay" viewBox="0 0 17.52 15.97" xmlns="http://www.w3.org/2000/svg"><path d="M16.7 7.27a.81.81 0 01-.9.7c-.1 0-.2 0-.2-.1l-4.9-1.8c-.5-.2-.6-.6-.1-.8l6.2-3.6c.5-.3.8-.1.7.5l-.8 5.1z"/><path d="M8.1 13.77a5.92 5.92 0 01-2.9-.7A5.77 5.77 0 012 7.87a6.21 6.21 0 016.3-6A6.15 6.15 0 0113.9 6l.1-.1L16.1 7A8.1 8.1 0 007 .07 8.24 8.24 0 000 8a8.06 8.06 0 004.3 7 10.21 10.21 0 003.8 1 8.24 8.24 0 006.6-3.3l-1.8-.9a7 7 0 01-4.8 2z"/></symbol><symbol id="icon-overlay-play" viewBox="0 0 80 80" xmlns="http://www.w3.org/2000/svg"><path d="M2.5 40A37.5 37.5 0 1140 77.5 37.51 37.51 0 012.5 40z" fill="#333" stroke="#fff" stroke-width="5"/><path d="M60.3 38a1 1 0 01.6 1.4.9.9 0 01-.6.6L30 57.5c-1 .6-1.7.1-1.7-1v-35c0-1.1.8-1.5 1.7-1z" fill="#fff"/></symbol><symbol id="icon-loading-spinner" viewBox="0 0 75.8 77.9" xmlns="http://www.w3.org/2000/svg"><g fill="#fff"><circle cx="38.8" cy="8.1" r="8.1"/><circle cx="70.8" cy="40" r="5" opacity=".4"/><circle cx="38.8" cy="71.9" r="6" opacity=".6"/><circle cx="7" cy="40" r="7" opacity=".8"/><circle cx="15.1" cy="17.3" r="7.5" opacity=".9"/><circle cx="63.2" cy="17.1" r="4.5" opacity=".3"/><circle cx="62.7" cy="63.8" r="5.5" opacity=".5"/><circle cx="15.1" cy="63.8" r="6.5" opacity=".7"/></g></symbol></svg>