<svg width="102" height="76" fill="none" xmlns="http://www.w3.org/2000/svg"><path d="M81.624 28.43l-1.307 2.13c-.478.79-1.498 1.117-2.407.805a17.947 17.947 0 01-5.116-2.77c-.733-.566-.924-1.564-.446-2.339l1.307-2.13a12.686 12.686 0 01-2.534-4.08h-2.63c-.957 0-1.786-.641-1.945-1.535a15.692 15.692 0 010-5.525c.16-.894.988-1.55 1.945-1.55h2.63a12.687 12.687 0 012.534-4.08l-1.307-2.13a1.751 1.751 0 01.446-2.338A18.16 18.16 0 0177.91.118c.909-.313 1.929.014 2.407.804l1.307 2.13a15.142 15.142 0 015.053 0l1.307-2.13c.478-.79 1.498-1.117 2.407-.805a17.945 17.945 0 015.116 2.77c.733.567.924 1.564.446 2.339l-1.307 2.13a12.687 12.687 0 012.534 4.08h2.63c.957 0 1.786.641 1.945 1.535a15.683 15.683 0 010 5.525c-.159.894-.988 1.55-1.945 1.55h-2.63a12.686 12.686 0 01-2.534 4.08l1.307 2.13a1.751 1.751 0 01-.446 2.338 18.162 18.162 0 01-5.117 2.77c-.908.313-1.928-.014-2.406-.803l-1.307-2.13a15.146 15.146 0 01-5.053 0zm-1.673-8.757c6.136 4.409 13.133-2.13 8.415-7.864-6.136-4.423-13.133 2.13-8.415 7.864zM61.573 42.595l5.372 2.502c1.61.864 2.31 2.696 1.673 4.334-1.418 3.604-4.208 6.91-6.79 9.8-1.18 1.326-3.22 1.654-4.83.79l-4.637-2.502a27.901 27.901 0 01-8.75 4.72v5.005c0 1.728-1.324 3.217-3.14 3.515a38.293 38.293 0 01-12.098 0c-1.833-.298-3.188-1.772-3.188-3.515V62.24c-3.236-1.073-6.2-2.681-8.75-4.721l-4.639 2.487c-1.594.864-3.65.536-4.83-.79-2.58-2.889-5.306-6.196-6.724-9.785-.638-1.623.063-3.455 1.673-4.334l5.308-2.502a24.14 24.14 0 010-9.443l-5.308-2.517c-1.61-.864-2.327-2.696-1.673-4.32 1.418-3.604 4.144-6.91 6.726-9.8 1.18-1.325 3.22-1.653 4.83-.789l4.637 2.502a27.9 27.9 0 018.75-4.721v-5.02c0-1.712 1.308-3.202 3.125-3.5a38.865 38.865 0 0112.113-.014c1.833.298 3.188 1.772 3.188 3.515v5.004a28.197 28.197 0 018.75 4.721L57 15.711c1.594-.864 3.65-.536 4.83.79 2.581 2.889 5.29 6.195 6.71 9.8.637 1.623.015 3.455-1.594 4.334l-5.372 2.502c.622 3.128.622 6.33 0 9.458zM42.83 45.737c9.436-11.468-4.574-24.56-16.847-15.743-9.436 11.469 4.574 24.56 16.847 15.743zM81.624 72.95l-1.307 2.13c-.478.789-1.498 1.117-2.407.804a17.945 17.945 0 01-5.116-2.77c-.733-.567-.924-1.564-.446-2.339l1.307-2.13a12.686 12.686 0 01-2.534-4.08h-2.63c-.957 0-1.786-.641-1.945-1.535a15.692 15.692 0 010-5.525c.16-.894.988-1.55 1.945-1.55h2.63a12.686 12.686 0 012.534-4.08l-1.307-2.13a1.751 1.751 0 01.446-2.338 18.163 18.163 0 015.116-2.77c.909-.314 1.929.014 2.407.803l1.307 2.13a15.146 15.146 0 015.053 0l1.307-2.13c.478-.789 1.498-1.117 2.407-.804a17.947 17.947 0 015.116 2.77c.733.566.924 1.564.446 2.339l-1.307 2.13a12.686 12.686 0 012.534 4.08h2.63c.957 0 1.786.641 1.945 1.535a15.683 15.683 0 010 5.525c-.159.894-.988 1.55-1.945 1.55h-2.63a12.686 12.686 0 01-2.534 4.08l1.307 2.13a1.751 1.751 0 01-.446 2.338 18.16 18.16 0 01-5.117 2.77c-.908.313-1.928-.014-2.406-.804l-1.307-2.13a15.14 15.14 0 01-5.053 0zm-1.673-8.773c6.136 4.409 13.133-2.13 8.415-7.864-6.136-4.408-13.133 2.13-8.415 7.864z" fill="url(#paint0_linear_1_3454)"/><defs><linearGradient id="paint0_linear_1_3454" x1="51" y1="0" x2="110.188" y2="108.192" gradientUnits="userSpaceOnUse"><stop stop-color="#8BD7DC"/><stop offset="1" stop-color="#1246A9"/></linearGradient></defs></svg>