<svg width="67" height="76" fill="none" xmlns="http://www.w3.org/2000/svg"><path d="M31.738 38.015c-.873-2.375-.855-6.962-.35-6.962 1.466 0 1.327 5.478.35 6.962zm-.297 7.006c-1.343 2.998-3.018 6.427-4.955 9.307 3.193-1.039 6.805-2.553 10.975-3.25-2.216-1.426-4.345-3.474-6.02-6.057zM15.023 63.546c0 .119 2.303-.801 6.089-5.967-1.169.935-5.077 3.637-6.09 5.967zM43.27 23.75H67v48.688C67 74.412 65.133 76 62.812 76H4.188C1.866 76 0 74.412 0 72.437V3.564C0 1.587 1.867 0 4.188 0h34.895v20.188c0 1.959 1.885 3.562 4.188 3.562zm-1.396 25.502c-3.49-1.811-5.81-4.305-7.45-7.986.785-2.746 2.024-6.918 1.082-9.53-.82-4.364-7.398-3.934-8.34-1.01-.873 2.717-.07 6.547 1.413 11.43-2.024 4.097-5.008 9.59-7.12 12.736-.017 0-.017.015-.034.015-4.728 2.063-12.842 6.606-9.51 10.094.978 1.024 2.793 1.484 3.752 1.484 3.123 0 6.23-2.672 10.66-9.173 4.503-1.262 9.44-2.835 13.785-3.444 3.786 1.752 8.218 2.895 11.166 2.895 5.095 0 5.444-4.75 3.438-6.443-2.426-2.018-9.475-1.44-12.842-1.068zm23.904-33.666l-17.1-14.547C47.895.371 46.83 0 45.715 0h-1.047v19H67v-.905c0-.936-.436-1.841-1.221-2.51zm-12.93 37.896c.716-.4-.435-1.766-7.467-1.336 6.473 2.345 7.468 1.336 7.468 1.336z" fill="url(#paint0_linear_1_3451)"/><defs><linearGradient id="paint0_linear_1_3451" x1="33.5" y1="0" x2="102.626" y2="83" gradientUnits="userSpaceOnUse"><stop stop-color="#8BD7DC"/><stop offset="1" stop-color="#1246A9"/></linearGradient></defs></svg>