<svg width="80" height="71" fill="none" xmlns="http://www.w3.org/2000/svg"><path d="M78.926 2.649a2.144 2.144 0 00-.672-1.096A2.59 2.59 0 0077.02.957C71.987 0 68.05 0 64.127 0c-16.13 0-25.804 7.655-33.023 17.75H14.818a8.225 8.225 0 00-3.937.994c-1.183.648-2.14 1.576-2.763 2.68l-7.724 13.7a3.016 3.016 0 00-.39 1.638 3.07 3.07 0 00.558 1.599c.336.482.806.88 1.365 1.156a4.13 4.13 0 001.826.42H19.97l-3.512 3.116c-.937.832-1.464 1.96-1.464 3.137s.527 2.306 1.464 3.138l7.956 7.06a5.077 5.077 0 001.622.962 5.557 5.557 0 001.915.337c.656 0 1.307-.114 1.914-.337a5.084 5.084 0 001.622-.963L35 53.271v14.4c0 .567.163 1.124.474 1.62.31.495.76.912 1.302 1.21a4.099 4.099 0 001.802.495 4.157 4.157 0 001.846-.345l15.426-6.849c1.245-.552 2.292-1.401 3.024-2.452a6.099 6.099 0 001.117-3.497V43.375c11.346-6.42 20.006-15.032 20.006-29.272.016-3.495.016-6.99-1.07-11.454zM60.007 23.297a6.83 6.83 0 01-3.473-.935c-1.028-.61-1.83-1.476-2.303-2.49a4.969 4.969 0 01-.355-3.204c.24-1.076.836-2.065 1.71-2.84.875-.776 1.989-1.304 3.201-1.518a6.993 6.993 0 013.613.315c1.142.42 2.118 1.13 2.805 2.043a5.114 5.114 0 011.054 3.082c0 1.47-.659 2.882-1.831 3.922-1.173 1.04-2.763 1.625-4.42 1.625z" fill="url(#paint0_linear_1_3457)"/><defs><linearGradient id="paint0_linear_1_3457" x1="40" y1="0" x2="100.068" y2="92.182" gradientUnits="userSpaceOnUse"><stop stop-color="#8BD7DC"/><stop offset="1" stop-color="#1246A9"/></linearGradient></defs></svg>