<svg width="71" height="91" fill="none" xmlns="http://www.w3.org/2000/svg"><path d="M35.111 90.193c-6.648 0-12.542-1.136-17.684-3.409-5.114-2.301-9.148-5.469-12.103-9.503C2.37 73.247.864 68.602.807 63.347H22.03c.085 1.903.696 3.593 1.832 5.07 1.136 1.45 2.685 2.586 4.645 3.41 1.96.824 4.19 1.236 6.69 1.236s4.702-.44 6.605-1.322c1.932-.909 3.438-2.144 4.517-3.707 1.08-1.59 1.606-3.409 1.577-5.455.029-2.045-.554-3.863-1.747-5.454-1.193-1.59-2.883-2.827-5.07-3.707-2.16-.881-4.717-1.321-7.671-1.321h-8.48v-15h8.48c2.585 0 4.858-.427 6.818-1.279 1.988-.852 3.537-2.045 4.645-3.58 1.108-1.562 1.647-3.352 1.619-5.369.028-1.96-.44-3.679-1.406-5.156-.938-1.506-2.259-2.67-3.963-3.494-1.676-.824-3.622-1.236-5.838-1.236-2.33 0-4.446.412-6.35 1.236-1.875.824-3.366 1.988-4.474 3.494-1.108 1.506-1.69 3.253-1.747 5.241H2.554c.057-5.198 1.506-9.772 4.347-13.721 2.84-3.977 6.704-7.088 11.59-9.332C23.408 1.656 29.004.534 35.282.534c6.25 0 11.748 1.094 16.492 3.281 4.744 2.188 8.438 5.17 11.08 8.95 2.642 3.75 3.963 7.996 3.963 12.74.028 4.916-1.577 8.964-4.816 12.146-3.21 3.181-7.343 5.142-12.4 5.88v.682c6.761.795 11.86 2.983 15.298 6.563 3.466 3.58 5.185 8.053 5.156 13.423 0 5.057-1.491 9.545-4.474 13.466-2.955 3.892-7.074 6.96-12.358 9.204-5.256 2.216-11.293 3.324-18.11 3.324z" fill="url(#paint0_linear_1_3703)"/><defs><linearGradient id="paint0_linear_1_3703" x1="35.5" y1="-27" x2="164.74" y2="71.329" gradientUnits="userSpaceOnUse"><stop stop-color="#8BD7DC"/><stop offset="1" stop-color="#1246A9"/></linearGradient></defs></svg>