<svg width="95" height="95" fill="none" xmlns="http://www.w3.org/2000/svg"><path d="M47.5 0C21.266 0 0 21.266 0 47.5S21.266 95 47.5 95 95 73.734 95 47.5 73.734 0 47.5 0zm15.761 68.492c-.747.743-1.53 1.523-2.166 2.16a4.577 4.577 0 00-1.182 2.052c-.289 1.084-.523 2.18-.913 3.23l-3.331 8.974a38.276 38.276 0 01-8.169.898v-5.244c.324-2.417-1.463-6.945-4.334-9.816a6.13 6.13 0 01-1.795-4.334V60.28c0-2.23-1.2-4.279-3.153-5.357-2.752-1.523-6.667-3.65-9.348-5.001a27.614 27.614 0 01-6.062-4.166l-.154-.138a21.99 21.99 0 01-3.459-3.972 3160.732 3160.732 0 01-6.625-9.795c3.92-8.715 10.987-15.713 19.766-19.515l4.6 2.3c2.037 1.019 4.435-.462 4.435-2.74V9.731a38.278 38.278 0 014.671-.464l5.42 5.42a3.065 3.065 0 010 4.335l-.898.896-1.98 1.98a1.533 1.533 0 000 2.167l.898.898a1.533 1.533 0 010 2.167l-1.532 1.532a1.534 1.534 0 01-1.084.448h-1.722c-.398 0-.781.155-1.069.435l-1.9 1.848a1.533 1.533 0 00-.302 1.783l2.986 5.974a1.533 1.533 0 01-1.37 2.218h-1.08a1.53 1.53 0 01-1.004-.375l-1.777-1.544a3.068 3.068 0 00-2.978-.594l-5.97 1.99a2.288 2.288 0 00-.3 4.22l2.123 1.06a12.971 12.971 0 005.805 1.372c2.015 0 4.327 5.227 6.13 6.13h12.784c1.626 0 3.183.645 4.335 1.794l2.622 2.622a5.843 5.843 0 011.71 4.131 8.912 8.912 0 01-2.628 6.317zM79.87 50.995a4.597 4.597 0 01-2.71-1.91l-3.444-5.165a4.591 4.591 0 010-5.098l3.752-5.628a4.591 4.591 0 011.77-1.56l2.486-1.244c2.59 5.157 4.083 10.956 4.083 17.11 0 1.66-.141 3.287-.348 4.892l-5.59-1.397z" fill="url(#paint0_linear_1_3696)"/><defs><linearGradient id="paint0_linear_1_3696" x1="47.5" y1="0" x2="131.325" y2="114.168" gradientUnits="userSpaceOnUse"><stop stop-color="#8BD7DC"/><stop offset="1" stop-color="#1246A9"/></linearGradient></defs></svg>